<svg xmlns="http://www.w3.org/2000/svg" version="1.1" xmlns:xlink="http://www.w3.org/1999/xlink" xmlns:svgjs="http://svgjs.com/svgjs" width="1440" height="560" preserveAspectRatio="none" viewBox="0 0 1440 560"><g mask="url(&quot;#SvgjsMask1041&quot;)" fill="none"><path d="M1536.17 161.14C1364.1 162.07 1122.91 313.77 864.69 312.34 606.47 310.91 650.56-31.86 528.95-67.65" stroke="rgba(51,121,194,0.58)" stroke-width="2"></path><path d="M1671.82 167.52C1488.75 169.33 1235.66 364.44 966.24 363.52 696.82 362.6 741.21 1.96 613.45-35.62" stroke="rgba(51,121,194,0.58)" stroke-width="2"></path><path d="M1455.8 456.54C1314.68 449.69 1173.7 224.24 949.96 204.54 726.22 184.84 780.8-8.37 697.04-24.52" stroke="rgba(51,121,194,0.58)" stroke-width="2"></path><path d="M1542.84 264.26C1430.83 264.04 1321.58 194.26 1100.31 194.26 879.05 194.26 889.16 267.27 657.79 264.26 426.41 261.25 353.61-57.6 215.26-76.58" stroke="rgba(51,121,194,0.58)" stroke-width="2"></path><path d="M1562.24 368.5C1370.41 364.15 1214.61 102.7 843.33 99.7 472.05 96.7 305.99-3.3 124.42-3.56" stroke="rgba(51,121,194,0.58)" stroke-width="2"></path></g><defs><mask id="SvgjsMask1041"><rect width="1440" height="560" fill="#ffffff"></rect></mask></defs></svg>